<svg xmlns="http://www.w3.org/2000/svg" width="20" height="20" viewBox="0 0 20 20" fill="none">
    <path d="M14.6663 7.89989L16.1997 5.24989C16.333 4.99155 16.233 4.67489 15.983 4.54155C15.8656 4.48037 15.7296 4.46525 15.6016 4.49917C15.4737 4.53308 15.363 4.61359 15.2913 4.72489L13.7247 7.42489C12.5462 6.92569 11.2795 6.66846 9.99967 6.66846C8.71987 6.66846 7.45311 6.92569 6.27467 7.42489L4.70801 4.72489C4.63225 4.60865 4.51436 4.52632 4.37914 4.49524C4.24392 4.46415 4.10192 4.48673 3.98301 4.55822C3.74967 4.70822 3.67467 5.00822 3.79967 5.24989L5.33301 7.89989C4.06081 8.62665 2.98567 9.65355 2.20132 10.8911C1.41698 12.1286 0.947221 13.5392 0.833008 14.9999H19.1663C19.0521 13.5392 18.5824 12.1286 17.798 10.8911C17.0137 9.65355 15.9385 8.62665 14.6663 7.89989ZM5.83301 12.7082C5.55674 12.7082 5.29179 12.5985 5.09644 12.4031C4.90109 12.2078 4.79134 11.9428 4.79134 11.6666C4.79134 11.3903 4.90109 11.1253 5.09644 10.93C5.29179 10.7346 5.55674 10.6249 5.83301 10.6249C6.10927 10.6249 6.37423 10.7346 6.56958 10.93C6.76493 11.1253 6.87467 11.3903 6.87467 11.6666C6.87467 11.9428 6.76493 12.2078 6.56958 12.4031C6.37423 12.5985 6.10927 12.7082 5.83301 12.7082ZM14.1663 12.7082C13.8901 12.7082 13.6251 12.5985 13.4298 12.4031C13.2344 12.2078 13.1247 11.9428 13.1247 11.6666C13.1247 11.3903 13.2344 11.1253 13.4298 10.93C13.6251 10.7346 13.8901 10.6249 14.1663 10.6249C14.4426 10.6249 14.7076 10.7346 14.9029 10.93C15.0983 11.1253 15.208 11.3903 15.208 11.6666C15.208 11.9428 15.0983 12.2078 14.9029 12.4031C14.7076 12.5985 14.4426 12.7082 14.1663 12.7082Z" fill="#A7DC22"/>
</svg>