<svg xmlns="http://www.w3.org/2000/svg" width="20" height="20" viewBox="0 0 20 20" fill="none">
    <path d="M5.83301 15.8332H14.1663C14.1108 15.1526 13.9025 14.5276 13.5413 13.9582C13.1802 13.3887 12.708 12.9373 12.1247 12.604L12.9163 11.1873C12.9441 11.1318 12.9511 11.0693 12.9372 10.9998C12.9233 10.9304 12.8816 10.8818 12.8122 10.854C12.7566 10.8262 12.6975 10.8193 12.6347 10.8332C12.5719 10.8471 12.5269 10.8818 12.4997 10.9373L11.6872 12.3957C11.4094 12.2846 11.1316 12.1979 10.8538 12.1357C10.5761 12.0734 10.2913 12.0421 9.99967 12.0415C9.70801 12.0409 9.42329 12.0723 9.14551 12.1357C8.86773 12.199 8.58995 12.2857 8.31217 12.3957L7.49967 10.9373C7.4719 10.8679 7.4269 10.8332 7.36467 10.8332C7.30245 10.8332 7.23634 10.8471 7.16634 10.8748L7.08301 11.1873L7.87467 12.604C7.29134 12.9373 6.81912 13.3887 6.45801 13.9582C6.0969 14.5276 5.88856 15.1526 5.83301 15.8332ZM8.12467 14.5832C8.01356 14.5832 7.91634 14.5415 7.83301 14.4582C7.74967 14.3748 7.70801 14.2776 7.70801 14.1665C7.70801 14.0554 7.74967 13.9582 7.83301 13.8748C7.91634 13.7915 8.01356 13.7498 8.12467 13.7498C8.23579 13.7498 8.33301 13.7915 8.41634 13.8748C8.49967 13.9582 8.54134 14.0554 8.54134 14.1665C8.54134 14.2776 8.49967 14.3748 8.41634 14.4582C8.33301 14.5415 8.23579 14.5832 8.12467 14.5832ZM11.8747 14.5832C11.7636 14.5832 11.6663 14.5415 11.583 14.4582C11.4997 14.3748 11.458 14.2776 11.458 14.1665C11.458 14.0554 11.4997 13.9582 11.583 13.8748C11.6663 13.7915 11.7636 13.7498 11.8747 13.7498C11.9858 13.7498 12.083 13.7915 12.1663 13.8748C12.2497 13.9582 12.2913 14.0554 12.2913 14.1665C12.2913 14.2776 12.2497 14.3748 12.1663 14.4582C12.083 14.5415 11.9858 14.5832 11.8747 14.5832ZM4.99967 18.3332C4.54134 18.3332 4.14912 18.1701 3.82301 17.844C3.4969 17.5179 3.33356 17.1254 3.33301 16.6665V3.33317C3.33301 2.87484 3.49634 2.48262 3.82301 2.1565C4.14967 1.83039 4.5419 1.66706 4.99967 1.6665H10.9788C11.2011 1.6665 11.413 1.70817 11.6147 1.7915C11.8163 1.87484 11.9933 1.99289 12.1455 2.14567L16.1872 6.18734C16.34 6.34012 16.458 6.51734 16.5413 6.719C16.6247 6.92067 16.6663 7.13234 16.6663 7.354V16.6665C16.6663 17.1248 16.5033 17.5173 16.1772 17.844C15.8511 18.1707 15.4586 18.3337 14.9997 18.3332H4.99967ZM10.833 6.6665C10.833 6.90262 10.913 7.10067 11.073 7.26067C11.233 7.42067 11.4308 7.50039 11.6663 7.49984H14.9997L10.833 3.33317V6.6665Z" fill="#A7DC22"/>
</svg>