<svg xmlns="http://www.w3.org/2000/svg" width="20" height="20" viewBox="0 0 20 20" fill="none">
    <path d="M8.18949 18.1357C4.45866 17.309 1.66699 13.9807 1.66699 9.99984C1.66699 8.48151 2.07283 7.05818 2.78283 5.83151L6.35199 12.014C6.75307 12.7407 7.36205 13.331 8.10085 13.7094C8.83965 14.0877 9.6746 14.2367 10.4987 14.1373L8.18949 18.1357ZM10.0003 18.3332L13.5728 12.1457C13.9619 11.4975 14.1673 10.7558 14.167 9.99984C14.1682 9.09811 13.8757 8.22051 13.3337 7.49984H17.952C18.2057 8.30891 18.3344 9.15195 18.3337 9.99984C18.3337 14.6023 14.6028 18.3332 10.0003 18.3332ZM12.1437 11.2873C11.9196 11.6604 11.602 11.9685 11.2223 12.1812C10.8426 12.3939 10.414 12.5038 9.97877 12.5C9.54359 12.4962 9.11693 12.3789 8.741 12.1596C8.36507 11.9404 8.05288 11.6268 7.83533 11.2498L7.81116 11.2082C7.60013 10.8258 7.49297 10.3947 7.50036 9.95804C7.50774 9.52134 7.6294 9.09418 7.85323 8.71913C8.07707 8.34407 8.39525 8.0342 8.7761 7.82037C9.15695 7.60655 9.58717 7.49623 10.0239 7.50041C10.4607 7.50459 10.8887 7.62312 11.2654 7.84419C11.6421 8.06527 11.9543 8.38117 12.1709 8.76044C12.3875 9.13971 12.501 9.56912 12.5 10.0059C12.499 10.4427 12.3836 10.8715 12.1653 11.2498L12.1437 11.2873ZM3.86033 4.36568C4.63998 3.51376 5.58867 2.83373 6.64585 2.36898C7.70304 1.90424 8.8455 1.66499 10.0003 1.66651C11.4634 1.66626 12.9007 2.05119 14.1678 2.7826C15.4349 3.51402 16.4871 4.56614 17.2187 5.83318H10.0003C9.18409 5.83289 8.38574 6.07236 7.70441 6.52184C7.02308 6.97132 6.48877 7.61102 6.16783 8.36151L3.86033 4.36568Z" fill="#A7DC22" fill-opacity="0.15"/>
</svg>