<svg xmlns="http://www.w3.org/2000/svg" width="20" height="20" viewBox="0 0 20 20" fill="none">
    <path d="M5.70866 5.6166C5.71699 5.6166 5.71699 5.6166 5.70866 5.6166V5.6166ZM17.7337 7.1666C17.3753 6.2916 16.6337 5.34993 16.0587 5.04993C16.5253 5.97493 16.8003 6.89993 16.9087 7.58327V7.59993C15.967 5.24993 14.367 4.29993 13.0587 2.23327C12.992 2.13327 12.917 2.02493 12.8587 1.9166C12.8253 1.85827 12.8003 1.79993 12.767 1.7416C12.717 1.63327 12.667 1.52493 12.642 1.40827C12.642 1.39993 12.6337 1.3916 12.6253 1.3916H12.6003C10.7503 2.47493 9.97532 4.38327 9.78366 5.5916C9.20866 5.62493 8.64199 5.7666 8.12532 6.0166C8.02532 6.05827 7.98366 6.17493 8.01699 6.27493C8.05866 6.3916 8.19199 6.44993 8.30032 6.39993C8.75032 6.18327 9.25032 6.05827 9.75032 6.02493H9.79199C9.85866 6.0166 9.93366 6.0166 10.0003 6.0166C10.417 6.00827 10.8087 6.0666 11.2003 6.18327L11.2503 6.19993C11.3337 6.2166 11.392 6.24993 11.4587 6.24993C11.5003 6.28327 11.5503 6.29993 11.592 6.3166L11.7087 6.3666C11.767 6.3916 11.8253 6.4166 11.8753 6.4416C11.9003 6.45827 11.9253 6.4666 11.9503 6.48327C12.0087 6.5166 12.0837 6.5416 12.117 6.57493C12.1503 6.5916 12.1837 6.6166 12.217 6.63327C12.8253 7.00827 13.3337 7.52493 13.6753 8.1416C13.2337 7.83327 12.4337 7.52493 11.667 7.65827C14.667 9.1666 13.8587 14.3249 9.70033 14.1249C9.33366 14.1166 8.96699 14.0416 8.61699 13.9166C8.53366 13.8916 8.45033 13.8583 8.37533 13.8166C8.33366 13.7999 8.27532 13.7749 8.23366 13.7499C7.20866 13.2249 6.36699 12.2333 6.25033 11.0249C6.25033 11.0249 6.66699 9.58327 9.02532 9.58327C9.28366 9.58327 10.0003 8.8666 10.0253 8.6666C10.0253 8.5916 8.57532 8.0166 8.00866 7.45827C7.70032 7.15827 7.55866 7.0166 7.43366 6.90827C7.36699 6.84993 7.29199 6.79993 7.21699 6.74993C7.02547 6.08397 7.01683 5.37872 7.19199 4.70827C6.33366 5.09993 5.66699 5.7166 5.18366 6.24993C4.85033 5.83327 4.87533 4.45827 4.89199 4.1666C4.88366 4.1666 4.64199 4.29993 4.61699 4.3166C4.32533 4.52493 4.05033 4.75827 3.80033 4.99993C3.50866 5.30827 3.25033 5.6166 3.01699 5.94993C2.50033 6.70827 2.08366 7.57493 1.90033 8.48327C1.90033 8.4916 1.81699 8.82493 1.75866 9.24993L1.73366 9.4416C1.71699 9.58327 1.70033 9.70827 1.66699 9.92493V10.2666C1.66699 14.8749 5.41699 18.6083 10.0003 18.6083C14.142 18.6083 17.567 15.6166 18.2337 11.6666C18.2503 11.5749 18.2587 11.4666 18.2753 11.3583C18.442 9.92493 18.2587 8.42493 17.7337 7.1666Z" fill="#A7DC22" fill-opacity="0.15"/>
</svg>