<svg xmlns="http://www.w3.org/2000/svg" width="20" height="20" viewBox="0 0 20 20" fill="none">
    <path d="M4.42941 1.74998C5.08858 1.65581 6.01275 1.87081 7.20691 2.55498L7.43358 2.68915L7.56691 2.77248L7.89775 2.70331C9.15924 2.45955 10.4535 2.437 11.7227 2.63665L12.1027 2.70331L12.4327 2.77248L12.5669 2.68915C13.7211 1.98915 14.6394 1.71415 15.3352 1.73248L15.4719 1.73915L15.5944 1.75331L15.6577 1.76498L15.6994 1.77415L15.8194 1.81331C16.0159 1.89453 16.1739 2.04776 16.2611 2.24165C16.6021 3.0014 16.7169 3.84332 16.5919 4.66665L16.5527 4.88915L16.5144 5.05248L16.6169 5.18831C17.0952 5.85081 17.3919 6.62831 17.4752 7.44415L17.4944 7.68998L17.5002 7.91665C17.5002 11.1291 16.1177 12.8191 13.6302 13.4833L13.4261 13.5341L13.3161 13.5583L13.3277 13.6925L13.3344 13.8233L13.3377 14.1275L13.3361 14.305L13.3336 17.5C13.3336 17.7041 13.2586 17.9011 13.123 18.0536C12.9874 18.2062 12.8005 18.3036 12.5977 18.3275L12.5002 18.3333H7.50025C7.29613 18.3333 7.09913 18.2584 6.9466 18.1227C6.79407 17.9871 6.69663 17.8002 6.67275 17.5975L6.66691 17.5V16.8883C5.15191 17.105 4.14191 16.535 3.24191 15.3233L2.79608 14.685C2.56275 14.355 2.41691 14.2025 2.30525 14.1483L2.26525 14.1325C2.05892 14.0654 1.88688 13.9206 1.78568 13.7287C1.68448 13.5368 1.6621 13.313 1.7233 13.1049C1.78451 12.8967 1.92446 12.7207 2.11343 12.6141C2.30239 12.5075 2.52547 12.4788 2.73525 12.5341C3.27025 12.6908 3.63025 13.0075 4.04358 13.5666L4.49191 14.2075C5.12525 15.1066 5.62525 15.4233 6.66608 15.2L6.66691 14.635L6.65191 14.495C6.62719 14.267 6.62134 14.0373 6.63441 13.8083L6.64858 13.6541L6.66441 13.5541L6.57441 13.5341C4.09441 12.9425 2.65525 11.39 2.51191 8.41831L2.50358 8.15998L2.50025 7.91665C2.50121 7.0138 2.76405 6.13061 3.25691 5.37415L3.38358 5.18915L3.48525 5.05331L3.44775 4.88998C3.29751 4.15795 3.33913 3.39951 3.56858 2.68831L3.65191 2.45331L3.74025 2.24248C3.82724 2.04875 3.98492 1.89554 4.18108 1.81415L4.30108 1.77498L4.42941 1.74998Z" fill="#A7DC22" fill-opacity="0.15"/>
</svg>