<svg xmlns="http://www.w3.org/2000/svg" width="20" height="20" viewBox="0 0 20 20" fill="none">
    <path d="M14.4897 17.3599C13.6186 18.2043 12.6675 18.071 11.7519 17.671C10.7831 17.2621 9.89419 17.2443 8.87197 17.671C7.59198 18.2221 6.91643 18.0621 6.15199 17.3599C1.81425 12.8888 2.45425 6.07997 7.37865 5.83108C8.57864 5.8933 9.41419 6.48885 10.1164 6.54219C11.1653 6.32885 12.1697 5.71553 13.2897 5.79553C14.6319 5.90219 15.6453 6.43552 16.3119 7.39551C13.5386 9.05772 14.1964 12.711 16.7386 13.7332C16.2319 15.0666 15.5741 16.391 14.4808 17.3688L14.4897 17.3599ZM10.0275 5.77775C9.89419 3.79554 11.5031 2.16 13.3519 2C13.6097 4.29331 11.272 5.99997 10.0275 5.77775Z" fill="#A7DC22"/>
</svg>