<svg xmlns="http://www.w3.org/2000/svg" width="40" height="40" viewBox="0 0 40 40" fill="none">
    <path fill-rule="evenodd" clip-rule="evenodd" d="M34.0068 16.1302C36.6644 13.4726 36.6644 9.16389 34.0068 6.50634C31.3493 3.8488 27.0406 3.8488 24.383 6.50634L7.3428 23.5465C6.61503 24.2743 6.09186 25.181 5.82599 26.1753L4.10883 32.597C3.49083 34.9082 5.60502 37.0224 7.91618 36.4044L14.3379 34.6872C15.3322 34.4213 16.2389 33.8982 16.9666 33.1704L34.0068 16.1302ZM7.82311 26.7093L6.10596 33.131C5.89881 33.9057 6.60747 34.6144 7.38215 34.4072L13.8038 32.6901C14.4472 32.518 15.0339 32.1795 15.5048 31.7086L32.545 14.6684C34.3953 12.8182 34.3953 9.81836 32.545 7.96814C30.6948 6.11792 27.695 6.11792 25.8448 7.96814L8.8046 25.0083C8.33368 25.4793 7.99515 26.066 7.82311 26.7093Z" fill="black"/>
    <path d="M6.10596 33.131L7.82311 26.7093C7.99515 26.066 8.33368 25.4793 8.8046 25.0083L25.8448 7.96814C27.695 6.11792 30.6948 6.11792 32.545 7.96814C34.3953 9.81836 34.3953 12.8182 32.545 14.6684L15.5048 31.7086C15.0339 32.1795 14.4472 32.518 13.8038 32.6901L7.38215 34.4072C6.60747 34.6144 5.89881 33.9057 6.10596 33.131Z" fill="white"/>
    <path fill-rule="evenodd" clip-rule="evenodd" d="M18.3058 22.7336C18.275 22.8575 18.2452 22.968 18.2109 23.0711C18.1266 23.3243 18.1499 23.5541 18.1686 23.6785C18.1785 23.7446 18.1913 23.8054 18.1994 23.8432C18.2092 23.8893 18.2125 23.9053 18.2148 23.9188C18.2199 23.9493 18.2231 23.9832 18.2301 24.0556C18.2309 24.0643 18.2318 24.0736 18.2328 24.0835C18.2402 24.16 18.2518 24.2764 18.2769 24.398C18.328 24.6453 18.4592 25.0328 18.8584 25.2916C19.0327 25.4046 19.2353 25.4717 19.4592 25.4692C19.6412 25.4672 19.7941 25.4169 19.8558 25.3966L19.86 25.3953C19.8625 25.3944 19.8742 25.3909 19.9029 25.3869C19.9342 25.3824 19.9717 25.3791 20.0343 25.3746C20.4698 25.3434 20.7598 25.1078 20.9319 24.9089C21.0464 24.7766 21.1637 24.5844 21.2063 24.5145C21.2135 24.5027 21.2186 24.4944 21.2211 24.4905C21.2876 24.3885 21.3761 24.2925 21.5274 24.1283C21.5369 24.118 21.5466 24.1075 21.5565 24.0967C21.7035 23.9371 21.9143 23.7062 22.0718 23.4187C22.077 23.4094 22.0917 23.3861 22.1426 23.3302C22.1638 23.307 22.1847 23.2851 22.2123 23.256C22.2198 23.2482 22.2278 23.2398 22.2364 23.2308C22.2732 23.192 22.3194 23.143 22.3665 23.0886C22.4275 23.0183 22.4899 22.9515 22.564 22.8721C22.5796 22.8554 22.5957 22.8381 22.6124 22.8201C22.7031 22.7227 22.8084 22.6081 22.9107 22.4814C23.195 22.129 23.1398 21.6128 22.7874 21.3285C22.4351 21.0441 21.9189 21.0993 21.6345 21.4517C21.5713 21.53 21.4999 21.6087 21.4122 21.7028C21.3991 21.717 21.3854 21.7316 21.3712 21.7468C21.2968 21.8264 21.2102 21.9192 21.1275 22.0145C21.091 22.0567 21.0721 22.0761 21.0463 22.1027C21.0215 22.1282 20.9902 22.1603 20.9308 22.2255C20.8441 22.3206 20.73 22.4552 20.6337 22.6309C20.5837 22.7222 20.5023 22.8209 20.3503 22.9859C20.337 23.0003 20.3229 23.0156 20.3081 23.0316C20.1782 23.1716 19.9939 23.3703 19.8474 23.5952C19.8408 23.6053 19.8343 23.6153 19.8281 23.6252C19.8242 23.6032 19.8202 23.583 19.8166 23.5656L19.8034 23.5026C19.802 23.4963 19.8008 23.4906 19.7998 23.4855C19.8587 23.293 19.9044 23.102 19.9426 22.942L19.9432 22.9396C19.9691 22.8312 20.0208 22.7055 20.1066 22.5383C20.1468 22.46 20.1896 22.3816 20.2382 22.2926L20.2471 22.2763C20.2973 22.1843 20.3539 22.0803 20.4074 21.9737C20.451 21.8869 20.4887 21.7999 20.5164 21.736C20.5188 21.7305 20.5211 21.7252 20.5233 21.72C20.5549 21.6472 20.5757 21.6009 20.5966 21.5607C20.6001 21.5541 20.6052 21.5446 20.6115 21.5328C20.6445 21.4716 20.7117 21.3469 20.7584 21.2306C20.8257 21.0627 20.8428 20.9124 20.8507 20.8353L20.8555 20.7852L20.8583 20.7566M20.8583 20.7566C20.8583 20.7566 20.8593 20.7526 20.8599 20.7504C20.8653 20.7293 20.8741 20.6943 20.882 20.6567L20.8825 20.6545C20.8865 20.6362 20.9077 20.5382 20.9063 20.43C20.9059 20.3974 20.9036 20.3184 20.8781 20.2226C20.8608 20.1577 20.7828 19.8845 20.4889 19.7175C20.1352 19.5163 19.8074 19.6445 19.6835 19.7131C19.5649 19.7786 19.4909 19.8583 19.4641 19.8883C19.4641 19.8883 19.4594 19.8925 19.4535 19.8973C19.4464 19.9031 19.4369 19.9106 19.4227 19.9213L19.37 19.9607C19.2382 20.0588 19.1336 20.1649 19.0604 20.2422C19.0247 20.2799 18.9988 20.3079 18.9773 20.3311C18.9446 20.3664 18.9221 20.3908 18.8907 20.4215C18.7451 20.5638 18.6479 20.7267 18.6114 20.7879C18.6073 20.7946 18.6041 20.8001 18.6015 20.8043C18.5987 20.8089 18.5961 20.813 18.5939 20.8165C18.5668 20.837 18.5409 20.8571 18.5191 20.8739C18.5118 20.8796 18.5049 20.8849 18.4987 20.8897C18.4619 20.918 18.4367 20.937 18.4144 20.9525C18.374 20.9807 18.3584 20.986 18.3584 20.986C18.3242 20.9977 18.2783 21.0122 18.2245 21.0292C18.0276 21.0914 17.7233 21.1875 17.4881 21.3063C17.4126 21.3444 17.3231 21.3986 17.2417 21.4504C17.274 21.3367 17.2882 21.2355 17.2964 21.1748C17.2992 21.1542 17.3013 21.1381 17.303 21.1251C17.3193 21.0916 17.3422 21.0412 17.3625 20.9789C17.4064 20.8441 17.4194 20.721 17.4232 20.6299C17.4268 20.5414 17.4224 20.4598 17.4198 20.4137C17.4196 20.4099 17.4194 20.4064 17.4193 20.403C17.4173 20.3667 17.4163 20.3483 17.4159 20.3351C17.4444 20.2142 17.4736 20.1134 17.5072 19.9969C17.5318 19.9119 17.5588 19.8186 17.5897 19.7031C17.6574 19.45 17.7248 19.149 17.7357 18.8071C17.7502 18.3545 17.395 17.9759 16.9424 17.9615C16.4899 17.947 16.1113 18.3022 16.0968 18.7548C16.0917 18.9138 16.0602 19.0754 16.0056 19.2793C15.9913 19.3329 15.9722 19.3997 15.9509 19.4741C15.905 19.6346 15.8491 19.8301 15.8098 20.0024C15.7815 20.1261 15.7762 20.2369 15.7759 20.3169C15.7757 20.3838 15.7796 20.4512 15.7818 20.4897C15.782 20.4932 15.7822 20.4965 15.7823 20.4995C15.7578 20.5536 15.7277 20.6311 15.7084 20.7217C15.697 20.7756 15.6893 20.8244 15.6838 20.8629C15.6805 20.8858 15.6765 20.9162 15.6738 20.9371C15.6727 20.9452 15.6719 20.9519 15.6713 20.9561C15.667 20.9882 15.6645 21.001 15.6639 21.0039C15.6569 21.0268 15.6484 21.0522 15.6348 21.0924L15.6339 21.095C15.6213 21.1323 15.6039 21.1835 15.5877 21.2375C15.5548 21.347 15.5128 21.5098 15.5092 21.7004C15.5088 21.7182 15.5079 21.7388 15.5062 21.7747C15.5059 21.7827 15.5055 21.7915 15.505 21.8012C15.5029 21.8473 15.5003 21.9085 15.4999 21.9732C15.4992 22.0772 15.5008 22.2966 15.5767 22.5116C15.7332 22.955 16.0993 23.1289 16.3065 23.1943C16.4098 23.2269 16.505 23.2435 16.5642 23.253C16.6111 23.2605 16.6311 23.2632 16.6442 23.265C16.6558 23.2666 16.6621 23.2675 16.6771 23.2703C16.6835 23.2715 16.6887 23.2726 16.7008 23.2752C16.7088 23.2769 16.7199 23.2792 16.7363 23.2827C16.7684 23.2895 16.8173 23.2995 16.8719 23.3077C16.957 23.3204 17.1718 23.3493 17.406 23.2762C17.621 23.2091 17.7654 23.0951 17.8396 23.0327C17.856 23.019 17.8714 23.0055 17.8811 22.9971L17.8829 22.9955L17.9006 22.9802C17.9937 22.9213 18.05 22.8825 18.0924 22.8533C18.1444 22.8175 18.1753 22.7962 18.2274 22.7699C18.2535 22.7567 18.2794 22.7448 18.3058 22.7336" fill="black"/>
    <path fill-rule="evenodd" clip-rule="evenodd" d="M32.0669 15.9192C31.9306 15.8857 31.7606 15.8411 31.5852 15.7757C31.4746 15.7343 31.3767 15.6965 31.2849 15.6611C31.1169 15.5963 30.9699 15.5396 30.8049 15.4843C30.7152 15.4542 30.638 15.4209 30.583 15.3962C30.5573 15.3846 30.5322 15.3729 30.513 15.364L30.5093 15.3623C30.4878 15.3523 30.4727 15.3453 30.4589 15.3391C30.4547 15.3373 30.451 15.3357 30.4477 15.3342C30.304 15.3174 30.2057 15.3024 30.1256 15.2902C30.011 15.2727 29.9338 15.2609 29.8144 15.2576C29.7156 15.2548 29.63 15.2428 29.5683 15.2323C29.5169 15.2235 29.4655 15.2127 29.4366 15.2066C29.4327 15.2058 29.4293 15.2051 29.4263 15.2045C29.4199 15.2031 29.4145 15.202 29.4098 15.2011C29.2544 15.2079 29.1661 15.2216 29.0589 15.254C28.8627 15.3133 28.6969 15.4004 28.609 15.4742C28.5844 15.4948 28.5627 15.5151 28.5204 15.5547C28.5091 15.5654 28.4962 15.5774 28.4814 15.5913C28.423 15.6457 28.333 15.7288 28.2253 15.8092C28.1185 15.889 28.007 15.9513 27.9578 15.9787C27.9528 15.9816 27.9484 15.984 27.9447 15.9861C27.9421 15.9875 27.9397 15.9889 27.9374 15.9902C27.9052 16.0318 27.8348 16.1222 27.7309 16.2173C27.7086 16.2538 27.6758 16.3052 27.6329 16.3618C27.5716 16.4426 27.552 16.4891 27.505 16.601C27.4722 16.679 27.4261 16.7887 27.3431 16.9641C27.3029 17.0491 27.27 17.1168 27.2429 17.1727C27.165 17.3334 27.1351 17.3952 27.1155 17.4836C27.0889 17.6042 27.0759 17.6932 27.0592 17.8084C27.0467 17.8942 27.0321 17.9947 27.0081 18.1337C26.9981 18.1916 26.9936 18.2692 26.9916 18.4174C26.9914 18.4324 26.9912 18.4486 26.991 18.466C26.9901 18.5524 26.9889 18.6662 26.9818 18.7874C26.9908 18.8039 27.0015 18.8238 27.0098 18.8393C27.0386 18.8936 27.0837 18.9805 27.1241 19.0841C27.1277 19.0874 27.1322 19.0916 27.1379 19.0967C27.1679 19.1233 27.2014 19.1497 27.2688 19.2029L27.2776 19.2098C27.342 19.2607 27.4338 19.3333 27.5284 19.4203C27.7287 19.6045 27.8762 19.7994 27.9834 19.9467C27.9893 19.9525 28.0035 19.9661 28.0308 19.9906C28.0346 19.994 28.039 19.998 28.044 20.0024C28.0699 20.0256 28.1101 20.0616 28.1476 20.0971C28.1956 20.1427 28.2559 20.203 28.3175 20.2767C28.4202 20.3998 28.4952 20.4949 28.5583 20.5751C28.6618 20.7065 28.7336 20.7977 28.8442 20.9056C28.9004 20.9606 28.9458 21.0119 28.9744 21.0449L28.9823 21.0539C29.0009 21.0614 29.0211 21.069 29.0461 21.0784C29.0908 21.0952 29.1509 21.1178 29.2448 21.1557C29.2948 21.1759 29.3367 21.1883 29.4219 21.2134C29.4492 21.2215 29.481 21.2308 29.519 21.2422C29.6537 21.2826 29.8528 21.3455 30.0647 21.4604C30.3046 21.5904 30.5406 21.7365 30.7463 21.8638C30.7636 21.8745 30.7806 21.8851 30.7975 21.8955C30.8563 21.8937 30.9397 21.8925 31.0351 21.8992C31.1753 21.9091 31.2863 21.9193 31.3838 21.9283C31.5116 21.9401 31.6163 21.9498 31.733 21.9536C31.7456 21.9487 31.7612 21.9425 31.7814 21.9343L31.8387 21.9108C31.8597 21.9022 31.8847 21.8921 31.9111 21.8819C32.3421 21.7151 32.7658 21.6685 33.0773 21.639C33.1288 21.6342 33.177 21.6297 33.2225 21.6256C33.4866 21.6013 33.6578 21.5856 33.8272 21.5425C33.8721 21.531 33.916 21.5208 33.9527 21.5124C33.9658 21.5094 33.9777 21.5067 33.9889 21.5041C34.0123 21.4988 34.0327 21.4942 34.055 21.4889C34.0942 21.4797 34.1242 21.4721 34.148 21.4654C34.1569 21.4541 34.1655 21.4431 34.1736 21.4328C34.1886 21.4138 34.2017 21.3971 34.2116 21.3845C34.2515 21.3331 34.2776 21.2978 34.2975 21.2683C34.3163 21.2401 34.3251 21.2236 34.3291 21.2149C34.3326 21.2074 34.3336 21.2034 34.3336 21.2034C34.3363 21.1919 34.3389 21.1775 34.3414 21.1493C34.3429 21.1337 34.3442 21.1147 34.3458 21.0879C34.3468 21.07 34.3476 21.0563 34.3484 21.0404C34.3491 21.027 34.3499 21.012 34.3511 20.9915C34.3629 20.7793 34.4181 20.5988 34.4537 20.4926C34.4718 20.4386 34.4908 20.3872 34.504 20.3515L34.5055 20.3474C34.5208 20.306 34.5287 20.2845 34.5346 20.2667C34.5545 20.2069 34.5749 20.1506 34.5904 20.1077L34.5927 20.1016C34.6099 20.0538 34.6211 20.0227 34.6305 19.9941C34.6438 19.9534 34.647 19.937 34.6475 19.9338C34.6594 19.8073 34.6862 19.7011 34.7087 19.626C34.7058 19.6196 34.7028 19.613 34.6997 19.6063C34.6225 19.4368 34.4999 19.1679 34.4247 18.8932C34.4199 18.8852 34.413 18.8739 34.4035 18.8592C34.3924 18.8422 34.3807 18.8245 34.3646 18.8004C34.3499 18.7781 34.3309 18.7495 34.3118 18.72C34.2741 18.6615 34.2234 18.5797 34.1758 18.4843C34.1523 18.437 34.1309 18.3899 34.1164 18.3581L34.1127 18.35C34.0991 18.32 34.0898 18.2997 34.0808 18.2806L34.0704 18.2708C34.0513 18.2526 34.0254 18.2273 33.9968 18.1971C33.7633 17.9507 33.6059 17.6722 33.4972 17.4565C33.4413 17.3454 33.391 17.2359 33.3489 17.1436C33.3441 17.133 33.3394 17.1227 33.3348 17.1127C33.2969 17.0293 33.2666 16.9628 33.2361 16.9004C33.196 16.8183 33.168 16.7334 33.1516 16.6478C33.0043 16.5097 32.9099 16.3612 32.8648 16.2885C32.8541 16.2714 32.8408 16.2492 32.8293 16.2302C32.7932 16.2035 32.7426 16.1644 32.6871 16.1137C32.6697 16.0979 32.6187 16.0596 32.4198 16.0056C32.3506 15.9868 32.2905 15.9726 32.2163 15.955C32.1729 15.9447 32.1247 15.9333 32.0669 15.9192ZM35.3298 16.6134C35.3879 16.7215 35.4299 16.7794 35.4582 16.8097C35.4582 16.8097 35.4604 16.8119 35.4629 16.8143L35.499 16.8484C35.5332 16.8809 35.5972 16.9426 35.6638 17.0254C35.7803 17.1704 35.856 17.3224 35.8952 17.404C35.938 17.4931 35.9463 17.5134 35.9523 17.5278C35.9572 17.5396 35.9604 17.5475 35.9797 17.5861C35.9797 17.5861 35.9855 17.5972 36.0055 17.6283C36.016 17.6445 36.0274 17.6618 36.0431 17.6854L36.0455 17.689C36.0596 17.7101 36.0773 17.7369 36.0952 17.7644C36.1632 17.8696 36.2971 18.0808 36.3661 18.3531C36.3915 18.4534 36.4344 18.5489 36.5143 18.727C36.5333 18.7694 36.5545 18.8165 36.5779 18.8694C36.5819 18.8784 36.5854 18.8857 36.5926 18.9012C36.595 18.9063 36.5978 18.9123 36.6012 18.9195C36.6123 18.9432 36.6307 18.9829 36.6493 19.0281C36.689 19.125 36.7362 19.2627 36.7559 19.4351C36.7927 19.7584 36.7033 20.0183 36.6693 20.117L36.6686 20.1189C36.6568 20.1534 36.6508 20.1699 36.6473 20.1797C36.6105 20.4651 36.5027 20.7527 36.4611 20.8635C36.4542 20.882 36.4491 20.8956 36.4465 20.9034C36.4291 20.9557 36.4102 21.0066 36.3973 21.0415L36.3955 21.0464C36.3805 21.0869 36.3715 21.1114 36.3641 21.1336C36.3629 21.1371 36.3618 21.1403 36.3609 21.1431C36.3552 21.2573 36.3454 21.4486 36.2961 21.6604C36.1791 22.1628 35.8642 22.5505 35.72 22.7281C35.6997 22.753 35.6829 22.7738 35.6704 22.7902C35.4019 23.142 35.0402 23.2929 34.8247 23.365C34.6707 23.4165 34.4449 23.4677 34.3582 23.4874C34.341 23.4913 34.3293 23.494 34.3247 23.4951C33.9859 23.5815 33.6347 23.6125 33.3795 23.635C33.3395 23.6385 33.3018 23.6419 33.267 23.6451C32.971 23.6731 32.7893 23.7027 32.6384 23.7611C32.622 23.7674 32.6075 23.7734 32.5843 23.7829C32.5729 23.7876 32.5595 23.7931 32.5428 23.7999C32.5 23.8174 32.4407 23.8412 32.3753 23.8642C32.2571 23.9056 32.0427 23.9726 31.7893 23.9702C31.5615 23.968 31.2962 23.9443 31.0936 23.9262C31.0159 23.9192 30.9474 23.9131 30.8939 23.9093C30.8939 23.9093 30.8914 23.9091 30.8842 23.9091C30.8765 23.9091 30.8657 23.9093 30.847 23.91C30.8438 23.9101 30.8393 23.9103 30.8336 23.9106C30.7994 23.912 30.7235 23.9152 30.655 23.9141C30.4426 23.9107 30.1645 23.8705 29.8705 23.691C29.7921 23.6432 29.7191 23.598 29.6496 23.555C29.4559 23.4352 29.2887 23.3318 29.1045 23.2319C29.0809 23.2191 29.0441 23.2035 28.9405 23.1724C28.9276 23.1686 28.9122 23.1641 28.8946 23.159C28.7995 23.1313 28.6415 23.0852 28.4903 23.0242C28.4782 23.0193 28.4587 23.0119 28.4337 23.0024C28.3329 22.964 28.1432 22.8918 27.996 22.8176C27.7717 22.7046 27.6247 22.5576 27.5409 22.4661C27.5121 22.4347 27.4787 22.3959 27.4623 22.3769C27.4589 22.3729 27.4562 22.3697 27.4544 22.3678C27.441 22.3524 27.4353 22.3463 27.4353 22.3463C27.2305 22.1461 27.0274 21.89 26.886 21.7117C26.8406 21.6545 26.8016 21.6053 26.7709 21.5685C26.7709 21.5685 26.7618 21.5593 26.6845 21.49L26.6806 21.4864C26.6151 21.4277 26.481 21.3073 26.3625 21.144C26.2673 21.0128 26.2145 20.9496 26.1645 20.9036C26.1312 20.873 26.0925 20.8415 26.0294 20.7917C26.0239 20.7874 26.018 20.7827 26.0118 20.7778C25.9569 20.7347 25.8767 20.6716 25.8 20.6035C25.6121 20.4366 25.3874 20.1918 25.2477 19.8188C25.246 19.8152 25.241 19.8049 25.2303 19.7848C25.2283 19.781 25.2247 19.7743 25.22 19.7657C25.2011 19.7307 25.1641 19.6625 25.1374 19.6084C25.0635 19.4586 24.9208 19.1412 24.9649 18.7371C24.9732 18.6614 24.9742 18.583 24.976 18.4441C24.9762 18.427 24.9764 18.409 24.9767 18.3899C24.9787 18.2407 24.9827 18.0212 25.0224 17.7911C25.0294 17.7504 25.0384 17.6915 25.0488 17.6223C25.0742 17.4545 25.1087 17.2262 25.148 17.0487C25.2246 16.7021 25.3857 16.3774 25.4789 16.1895C25.4957 16.1557 25.5103 16.1263 25.5217 16.102C25.5321 16.0802 25.5463 16.0466 25.5644 16.0041C25.6443 15.8157 25.7986 15.4521 26.0145 15.1613L26.0247 15.1439C26.0316 15.1322 26.0429 15.1129 26.0559 15.0917C26.1068 15.0091 26.1996 14.8708 26.3572 14.7397L26.3581 14.7386C26.3738 14.7183 26.4082 14.6738 26.4457 14.6303C26.4916 14.5772 26.5555 14.5092 26.6393 14.4407C26.7646 14.3382 26.8893 14.2679 26.9494 14.234L26.954 14.2314C27.0047 14.2028 27.0207 14.1933 27.0235 14.1917C27.0369 14.1814 27.0592 14.1622 27.1066 14.118C27.1127 14.1123 27.1198 14.1057 27.1276 14.0983C27.172 14.0566 27.2423 13.9906 27.3135 13.9308C27.6742 13.628 28.1124 13.435 28.4758 13.3251C28.825 13.2196 29.112 13.1944 29.3939 13.1852C29.5051 13.1816 29.6016 13.1915 29.6721 13.2017C29.741 13.2117 29.8034 13.2247 29.8384 13.232L29.8472 13.2338C29.8746 13.2396 29.888 13.2424 29.8976 13.2442C30.1223 13.253 30.404 13.2931 30.5814 13.3184C30.6417 13.3269 30.6899 13.3338 30.7198 13.3372C30.9731 13.3655 31.1753 13.4521 31.2822 13.4999C31.3103 13.5125 31.3372 13.525 31.3575 13.5345C31.3799 13.5448 31.3954 13.5521 31.4102 13.5587C31.4364 13.5705 31.4455 13.5738 31.4455 13.5738C31.6524 13.6431 31.8721 13.7277 32.0643 13.8017C32.1457 13.8331 32.2221 13.8625 32.2904 13.888C32.3967 13.9277 32.4711 13.9447 32.5843 13.9707C32.6716 13.9907 32.7819 14.0159 32.9478 14.061C33.2429 14.1411 33.6618 14.2805 34.0332 14.6142L34.0511 14.6272C34.0614 14.6345 34.0788 14.647 34.0968 14.6604C34.1786 14.7213 34.3131 14.8292 34.4366 15.0041C34.4759 15.0598 34.5082 15.1122 34.5292 15.1469L34.5578 15.1944L34.5721 15.2179C34.7498 15.3917 34.8734 15.573 34.9612 15.7144C35.0033 15.7822 35.0429 15.8507 35.0741 15.9044C35.0775 15.9103 35.0808 15.916 35.084 15.9215C35.1196 15.9828 35.1458 16.0273 35.1715 16.0676C35.2796 16.237 35.3307 16.4264 35.3298 16.6134Z" fill="black"/>
    <path d="M31.5852 15.7757C31.7606 15.8411 31.9306 15.8857 32.0669 15.9192C32.1247 15.9333 32.1729 15.9447 32.2163 15.955C32.2905 15.9726 32.3506 15.9868 32.4198 16.0056C32.6187 16.0596 32.6697 16.0979 32.6871 16.1137C32.7426 16.1644 32.7932 16.2035 32.8293 16.2302C32.8408 16.2492 32.8541 16.2714 32.8648 16.2885C32.9099 16.3612 33.0043 16.5097 33.1516 16.6478C33.168 16.7334 33.196 16.8183 33.2361 16.9004C33.2666 16.9628 33.2969 17.0293 33.3348 17.1127L33.3489 17.1436C33.391 17.2359 33.4413 17.3454 33.4972 17.4565C33.6059 17.6722 33.7633 17.9507 33.9968 18.1971C34.0254 18.2273 34.0513 18.2526 34.0704 18.2708L34.0808 18.2806C34.0898 18.2997 34.0991 18.32 34.1127 18.35L34.1164 18.3581C34.1309 18.3899 34.1523 18.437 34.1758 18.4843C34.2234 18.5797 34.2741 18.6615 34.3118 18.72C34.3309 18.7495 34.3499 18.7781 34.3646 18.8004C34.3807 18.8245 34.3924 18.8422 34.4035 18.8592C34.413 18.8739 34.4199 18.8852 34.4247 18.8932C34.4999 19.1679 34.6225 19.4368 34.6997 19.6063L34.7087 19.626C34.6862 19.7011 34.6594 19.8073 34.6475 19.9338C34.647 19.937 34.6438 19.9534 34.6305 19.9941C34.6211 20.0227 34.6099 20.0538 34.5927 20.1016L34.5904 20.1077C34.5749 20.1506 34.5545 20.2069 34.5346 20.2667C34.5287 20.2845 34.5208 20.306 34.5055 20.3474L34.504 20.3515C34.4908 20.3872 34.4718 20.4386 34.4537 20.4926C34.4181 20.5988 34.3629 20.7793 34.3511 20.9915L34.3484 21.0404L34.3458 21.0879C34.3442 21.1147 34.3429 21.1337 34.3414 21.1493C34.3389 21.1775 34.3363 21.1919 34.3336 21.2034C34.3336 21.2034 34.3326 21.2074 34.3291 21.2149C34.3251 21.2236 34.3163 21.2401 34.2975 21.2683C34.2776 21.2978 34.2515 21.3331 34.2116 21.3845L34.1736 21.4328L34.148 21.4654C34.1242 21.4721 34.0942 21.4797 34.055 21.4889C34.0327 21.4942 34.0123 21.4988 33.9889 21.5041L33.9527 21.5124C33.916 21.5208 33.8721 21.531 33.8272 21.5425C33.6578 21.5856 33.4866 21.6013 33.2225 21.6256L33.0773 21.639C32.7658 21.6685 32.3421 21.7151 31.9111 21.8819C31.8847 21.8921 31.8597 21.9022 31.8387 21.9108L31.7814 21.9343C31.7612 21.9425 31.7456 21.9487 31.733 21.9536C31.6163 21.9498 31.5116 21.9401 31.3838 21.9283C31.2863 21.9193 31.1753 21.9091 31.0351 21.8992C30.9397 21.8925 30.8563 21.8937 30.7975 21.8955L30.7463 21.8638C30.5406 21.7365 30.3046 21.5904 30.0647 21.4604C29.8528 21.3455 29.6537 21.2826 29.519 21.2422C29.481 21.2308 29.4492 21.2215 29.4219 21.2134C29.3367 21.1883 29.2948 21.1759 29.2448 21.1557C29.1509 21.1178 29.0908 21.0952 29.0461 21.0784C29.0211 21.069 29.0009 21.0614 28.9823 21.0539L28.9744 21.0449C28.9458 21.0119 28.9004 20.9606 28.8442 20.9056C28.7336 20.7977 28.6618 20.7065 28.5583 20.5751C28.4952 20.4949 28.4202 20.3998 28.3175 20.2767C28.2559 20.203 28.1956 20.1427 28.1476 20.0971C28.1101 20.0616 28.0699 20.0256 28.044 20.0024L28.0308 19.9906C28.0035 19.9661 27.9893 19.9525 27.9834 19.9467C27.8762 19.7994 27.7287 19.6045 27.5284 19.4203C27.4338 19.3333 27.342 19.2607 27.2776 19.2098L27.2688 19.2029C27.2014 19.1497 27.1679 19.1233 27.1379 19.0967C27.1322 19.0916 27.1277 19.0874 27.1241 19.0841C27.0837 18.9805 27.0386 18.8936 27.0098 18.8393L26.9818 18.7874C26.9889 18.6662 26.9901 18.5524 26.991 18.466L26.9916 18.4174C26.9936 18.2692 26.9981 18.1916 27.0081 18.1337C27.0321 17.9947 27.0467 17.8942 27.0592 17.8084C27.0759 17.6932 27.0889 17.6042 27.1155 17.4836C27.1351 17.3952 27.165 17.3334 27.2429 17.1727C27.27 17.1168 27.3029 17.0491 27.3431 16.9641C27.4261 16.7887 27.4722 16.679 27.505 16.601C27.552 16.4891 27.5716 16.4426 27.6329 16.3618C27.6758 16.3052 27.7086 16.2538 27.7309 16.2173C27.8348 16.1222 27.9052 16.0318 27.9374 15.9902L27.9447 15.9861L27.9578 15.9787C28.007 15.9513 28.1185 15.889 28.2253 15.8092C28.333 15.7288 28.423 15.6457 28.4814 15.5913L28.5204 15.5547C28.5627 15.5151 28.5844 15.4948 28.609 15.4742C28.6969 15.4004 28.8627 15.3133 29.0589 15.254C29.1661 15.2216 29.2544 15.2079 29.4098 15.2011L29.4263 15.2045L29.4366 15.2066C29.4655 15.2127 29.5169 15.2235 29.5683 15.2323C29.63 15.2428 29.7156 15.2548 29.8144 15.2576C29.9338 15.2609 30.011 15.2727 30.1256 15.2902C30.2057 15.3024 30.304 15.3174 30.4477 15.3342L30.4589 15.3391C30.4727 15.3453 30.4878 15.3523 30.5093 15.3623L30.513 15.364C30.5322 15.3729 30.5573 15.3846 30.583 15.3962C30.638 15.4209 30.7152 15.4542 30.8049 15.4843C30.9699 15.5396 31.1169 15.5963 31.2849 15.6611C31.3767 15.6965 31.4746 15.7343 31.5852 15.7757Z" fill="white"/>
    <path fill-rule="evenodd" clip-rule="evenodd" d="M20.1873 8.94336C20.0523 8.87654 19.9461 8.82397 19.829 8.77488C19.7465 8.7403 19.6694 8.70355 19.6071 8.67321C19.5776 8.65886 19.5537 8.6471 19.532 8.63642C19.5002 8.62076 19.4731 8.60745 19.4401 8.59175C19.3918 8.56873 19.3567 8.5532 19.3288 8.54224C19.3021 8.53176 19.2896 8.52858 19.2896 8.52858C19.2203 8.51233 19.139 8.49469 19.0497 8.47532C18.7757 8.4159 18.4263 8.34012 18.1173 8.23762C18.0959 8.2305 18.0513 8.21965 17.9464 8.20332C17.9303 8.20081 17.91 8.19782 17.8868 8.19438C17.7993 8.18147 17.6696 8.1623 17.5573 8.13893C17.4954 8.12602 17.4358 8.11169 17.3879 8.10001C17.3744 8.09671 17.362 8.09365 17.3503 8.09078C17.3161 8.08241 17.2883 8.07557 17.2588 8.06873C17.2215 8.06008 17.1941 8.05444 17.1728 8.05074C17.1528 8.04728 17.1432 8.04649 17.1432 8.04649C16.9433 8.03396 16.735 8.0019 16.5836 7.97858C16.5523 7.97375 16.5234 7.9693 16.4975 7.96548C16.3171 7.93883 16.2115 7.92954 16.1301 7.93326C16.1268 7.93365 16.0835 7.9388 15.9752 7.98089C15.9214 8.00181 15.8628 8.02722 15.791 8.05941C15.7746 8.06676 15.7564 8.07497 15.737 8.08371C15.681 8.10898 15.6153 8.13865 15.5549 8.16463C15.4735 8.19968 15.3988 8.22794 15.3414 8.24934C15.3291 8.25393 15.3179 8.2581 15.3076 8.26195C15.2644 8.27803 15.2364 8.28847 15.2075 8.30016C15.1493 8.32366 15.135 8.33399 15.1267 8.34021C15.1001 8.36021 15.0795 8.37552 15.0608 8.38941C15.0364 8.40754 15.0153 8.42325 14.9882 8.44382C14.9482 8.47427 14.9181 8.4982 14.8937 8.51916C14.8603 8.54785 14.8467 8.56332 14.8436 8.56687C14.811 8.61864 14.7878 8.66872 14.7398 8.77261C14.7222 8.81074 14.7012 8.85613 14.6752 8.91152C14.5964 9.07915 14.466 9.34641 14.2449 9.59122C14.2425 9.59507 14.2376 9.60297 14.2307 9.6159C14.2137 9.64774 14.1927 9.6946 14.1687 9.7595C14.1258 9.87517 14.0927 9.9928 14.0533 10.1325C14.0452 10.161 14.0369 10.1904 14.0283 10.2209C14.0177 10.2581 14.0071 10.2938 13.9982 10.324C13.9888 10.3559 13.9811 10.3817 13.9741 10.4064C13.96 10.4558 13.9528 10.4854 13.9485 10.5067C13.9462 10.5185 13.9452 10.5255 13.9447 10.5293C13.9507 10.5635 13.9654 10.6186 14.0007 10.7183C14.0074 10.7372 14.0188 10.768 14.0325 10.8052C14.0645 10.8919 14.1093 11.0133 14.1376 11.0993C14.1376 11.0993 14.1413 11.1103 14.155 11.1338C14.1693 11.1583 14.1914 11.1912 14.2253 11.235C14.2595 11.2791 14.3002 11.3273 14.3514 11.3857C14.3657 11.4019 14.3871 11.426 14.4108 11.4527C14.4483 11.4951 14.4917 11.544 14.5219 11.5787C14.5946 11.6624 14.6504 11.7425 14.6847 11.7927C14.7033 11.8199 14.715 11.8374 14.7237 11.8503C14.7309 11.8611 14.736 11.8687 14.7411 11.876C14.7481 11.8832 14.7566 11.8915 14.7734 11.9081C14.778 11.9127 14.7833 11.9179 14.7894 11.9238C14.7914 11.9258 14.7935 11.9279 14.7958 11.9302C14.8457 11.9792 14.9686 12.0999 15.0702 12.2599C15.1113 12.3247 15.1407 12.3834 15.1604 12.4258C15.1692 12.4448 15.1774 12.4633 15.1842 12.479C15.1894 12.4848 15.1956 12.4918 15.2034 12.5004L15.2073 12.5048C15.2578 12.5609 15.3785 12.6952 15.4738 12.8795C15.5089 12.9475 15.5832 13.0457 15.7279 13.184C15.8339 13.2853 15.9362 13.371 16.0578 13.4729C16.1128 13.5189 16.1716 13.5683 16.2365 13.6238C16.3427 13.7147 16.4254 13.8228 16.4839 13.9406C16.6149 14.0111 16.7016 14.0605 16.764 14.096C16.8694 14.1561 16.905 14.1765 16.9672 14.1915C17.1851 14.2443 17.3657 14.3099 17.5437 14.3852C17.5554 14.3869 17.5854 14.3906 17.6428 14.393C17.671 14.3941 17.701 14.395 17.7386 14.3959L17.7492 14.3962C17.7824 14.397 17.8223 14.398 17.8623 14.3995C17.9504 14.4028 18.0675 14.4091 18.1936 14.4281C18.2539 14.4371 18.3275 14.4414 18.4503 14.4443C18.4665 14.4447 18.4842 14.445 18.5032 14.4454C18.6085 14.4475 18.7544 14.4504 18.8971 14.4627C18.9199 14.4647 18.9411 14.4668 18.9588 14.4686L19.0052 14.4733C19.0115 14.474 19.0169 14.4745 19.0217 14.475C19.5516 14.3536 20.0703 14.1357 20.5488 13.8437C20.7919 13.6954 21.0589 13.6484 21.1619 13.6306C21.2325 13.6184 21.2996 13.6093 21.3476 13.603L21.3686 13.6002C21.4105 13.5947 21.4297 13.5921 21.445 13.5897C21.4801 13.5839 21.5156 13.5785 21.5439 13.5742C21.5515 13.5731 21.5585 13.572 21.5649 13.571C21.5987 13.5658 21.6216 13.5621 21.6412 13.5585C21.6761 13.5521 21.6922 13.5475 21.705 13.5431C21.7483 13.5281 21.7872 13.5147 21.8229 13.5025C21.9452 13.4606 22.029 13.4319 22.1145 13.3947C22.2124 13.3521 22.2499 13.323 22.263 13.3108C22.3245 13.2538 22.3887 13.1983 22.4388 13.155L22.4476 13.1473C22.504 13.0986 22.5464 13.0616 22.5849 13.0259C22.6466 12.9684 22.667 12.9416 22.6691 12.9393C22.7455 12.8013 22.7856 12.6762 22.7997 12.5546C22.8195 12.3826 22.8237 12.2193 22.829 12.0151C22.8314 11.9211 22.834 11.8185 22.8385 11.7024C22.8468 11.4884 22.836 11.2953 22.8035 11.1182C22.7867 11.027 22.7545 10.9245 22.6964 10.7683C22.6867 10.7422 22.6755 10.7127 22.6633 10.6806C22.617 10.5585 22.556 10.398 22.506 10.2365C22.4996 10.2301 22.4907 10.2216 22.4783 10.2108C22.4464 10.1829 22.4026 10.1495 22.3394 10.1058C22.2951 10.0752 22.2577 10.0505 22.2132 10.0212C22.1854 10.0029 22.1549 9.98275 22.1183 9.95823C22.1034 9.94826 22.0889 9.93855 22.0747 9.92907C21.8512 9.77944 21.7175 9.68992 21.5465 9.60657L20.3536 9.02522C20.2927 8.99554 20.2379 8.96845 20.1873 8.94336ZM14.1036 14.4022C14.1245 14.5827 14.1877 14.7348 14.2515 14.8447C14.3514 15.0166 14.4771 15.1334 14.5572 15.2C14.7195 15.3349 14.9045 15.4334 15.0279 15.4945C15.1641 15.562 15.3008 15.62 15.3974 15.6603C15.4961 15.7015 15.5249 15.7131 15.5249 15.7131C15.5408 15.7219 15.561 15.7335 15.5861 15.748C15.7566 15.847 16.1254 16.0609 16.4927 16.1499C16.5807 16.1712 16.6574 16.1977 16.7709 16.2463C17.0824 16.3797 17.3842 16.399 17.5584 16.4063C17.6581 16.4104 17.7209 16.4118 17.7654 16.4127C17.8262 16.414 17.8531 16.4146 17.8938 16.4207C18.0884 16.45 18.2703 16.4557 18.4032 16.4588C18.4313 16.4595 18.4571 16.46 18.481 16.4605C18.5849 16.4628 18.6532 16.4642 18.7243 16.4704C18.7299 16.4712 19.0768 16.5249 19.3915 16.457C20.1477 16.2937 20.8657 15.9987 21.5137 15.6147C21.54 15.6104 21.5708 15.6061 21.6119 15.6006L21.6832 15.5912C21.7081 15.5878 21.738 15.5835 21.769 15.5785C21.7816 15.5764 21.7976 15.5741 21.8165 15.5713C21.9294 15.5548 22.1459 15.523 22.3658 15.4467C22.3894 15.4385 22.4169 15.4294 22.4478 15.4192C22.716 15.3302 23.2347 15.158 23.6334 14.7881C23.6677 14.7563 23.7073 14.7221 23.7658 14.6715L23.7666 14.6708C23.8198 14.6247 23.8888 14.565 23.9577 14.5009C24.0899 14.3779 24.2805 14.1861 24.424 13.9297C24.6139 13.5905 24.7525 13.2096 24.8014 12.7856C24.8324 12.5177 24.8401 12.2157 24.8462 11.98C24.8481 11.9058 24.8498 11.8382 24.8521 11.7802C24.8647 11.4542 24.8505 11.1086 24.7854 10.7542C24.7356 10.4834 24.6521 10.2463 24.5851 10.066C24.5655 10.0133 24.5479 9.96673 24.5319 9.92437C24.4864 9.80408 24.4537 9.71762 24.4246 9.61986C24.2947 9.18333 24.0236 8.88482 23.803 8.69237C23.6266 8.53851 23.4213 8.40356 23.2957 8.32106C23.2742 8.30689 23.255 8.29427 23.2387 8.28337C23.2191 8.27028 23.1992 8.25689 23.1789 8.24323C22.9744 8.10588 22.7301 7.9418 22.4292 7.79517L21.2363 7.21382C21.2021 7.19711 21.1641 7.1783 21.1233 7.15808C20.975 7.08453 20.7893 6.99249 20.6081 6.91651C20.558 6.89553 20.5204 6.87692 20.463 6.84858C20.4237 6.82915 20.3751 6.80514 20.307 6.77266C20.177 6.71072 19.978 6.62032 19.7498 6.5668C19.6076 6.53342 19.4837 6.50658 19.371 6.4822C19.1371 6.43155 18.9519 6.39144 18.7519 6.32508C18.5632 6.26247 18.3804 6.23155 18.2562 6.21223C18.205 6.20425 18.1641 6.19821 18.1296 6.1931C18.0615 6.18302 18.0181 6.17659 17.9682 6.16621C17.925 6.15721 17.8975 6.15035 17.8592 6.14077C17.8253 6.13232 17.783 6.12176 17.7139 6.10575C17.6056 6.08062 17.4452 6.04642 17.2693 6.03539C17.1682 6.02905 17.0718 6.01439 16.9288 5.99264C16.8875 5.98636 16.8423 5.97949 16.792 5.97206C16.5968 5.94322 16.3271 5.90709 16.038 5.9203C15.7209 5.9348 15.443 6.02583 15.2452 6.10272C15.1214 6.15085 14.9622 6.22246 14.8543 6.27097C14.8133 6.28939 14.7797 6.30449 14.7583 6.3137C14.7243 6.32836 14.6877 6.3425 14.6365 6.3616C14.6295 6.36423 14.6218 6.3671 14.6135 6.37016C14.5694 6.38656 14.5099 6.40869 14.4524 6.43192C14.3024 6.49254 14.1148 6.58019 13.9168 6.72885C13.9045 6.73811 13.8893 6.74915 13.8718 6.76193C13.7163 6.87525 13.3736 7.12507 13.1483 7.47759C13.0316 7.66017 12.9356 7.87059 12.879 7.99456C12.8684 8.01791 12.8591 8.03819 12.8514 8.05465C12.7836 8.19898 12.7567 8.23277 12.7495 8.24064C12.502 8.51146 12.3613 8.83737 12.2789 9.05995C12.2053 9.25898 12.1469 9.46707 12.1082 9.6051C12.1017 9.62849 12.0957 9.64987 12.0903 9.66885C12.0853 9.68625 12.0787 9.70755 12.071 9.73242C12.009 9.93199 11.8757 10.3613 11.9553 10.85C11.9901 11.063 12.0522 11.2526 12.1015 11.3915C12.1304 11.4732 12.1506 11.5269 12.1674 11.5719C12.1876 11.6256 12.203 11.6668 12.2232 11.7283C12.326 12.0411 12.4935 12.2899 12.6324 12.4692C12.731 12.5964 12.852 12.7325 12.9365 12.8276C12.9606 12.8547 12.9818 12.8785 12.9986 12.8978C13.0002 12.9 13.0067 12.9087 13.0203 12.9286L13.0382 12.955L13.0613 12.9892C13.078 13.0139 13.0999 13.0457 13.1249 13.0799C13.1802 13.1557 13.2353 13.2168 13.2768 13.2604C13.309 13.2941 13.3431 13.3277 13.364 13.3482C13.369 13.3597 13.3745 13.372 13.3804 13.3845C13.4002 13.4271 13.4294 13.4853 13.4699 13.5493C13.5217 13.6313 13.5742 13.6974 13.6141 13.7447C13.6445 13.7807 13.6785 13.8184 13.6962 13.838C13.6995 13.8416 13.7022 13.8446 13.7042 13.8468C13.7058 13.8486 13.7073 13.8503 13.7087 13.8519C13.8238 14.063 13.9637 14.2461 14.1036 14.4022ZM13.9445 10.5328L13.9446 10.5308L13.9445 10.5328Z" fill="black"/>
    <path d="M19.829 8.77488C19.9461 8.82397 20.0523 8.87654 20.1873 8.94336C20.2379 8.96845 20.2927 8.99554 20.3536 9.02522L21.5465 9.60657C21.7175 9.68992 21.8512 9.77944 22.0747 9.92907L22.1183 9.95823C22.1549 9.98275 22.1854 10.0029 22.2132 10.0212C22.2577 10.0505 22.2951 10.0752 22.3394 10.1058C22.4026 10.1495 22.4464 10.1829 22.4783 10.2108C22.4907 10.2216 22.4996 10.2301 22.506 10.2365C22.556 10.398 22.617 10.5585 22.6633 10.6806C22.6755 10.7127 22.6867 10.7422 22.6964 10.7683C22.7545 10.9245 22.7867 11.027 22.8035 11.1182C22.836 11.2953 22.8468 11.4884 22.8385 11.7024C22.834 11.8185 22.8314 11.9211 22.829 12.0151C22.8237 12.2193 22.8195 12.3826 22.7997 12.5546C22.7856 12.6762 22.7455 12.8013 22.6691 12.9393C22.667 12.9416 22.6466 12.9684 22.5849 13.0259C22.5464 13.0616 22.504 13.0986 22.4476 13.1473L22.4388 13.155C22.3887 13.1983 22.3245 13.2538 22.263 13.3108C22.2499 13.323 22.2124 13.3521 22.1145 13.3947C22.029 13.4319 21.9452 13.4606 21.8229 13.5025C21.7872 13.5147 21.7483 13.5281 21.705 13.5431C21.6922 13.5475 21.6761 13.5521 21.6412 13.5585C21.6216 13.5621 21.5987 13.5658 21.5649 13.571L21.5439 13.5742C21.5156 13.5785 21.4801 13.5839 21.445 13.5897C21.4297 13.5921 21.4105 13.5947 21.3686 13.6002L21.3476 13.603C21.2996 13.6093 21.2325 13.6184 21.1619 13.6306C21.0589 13.6484 20.7919 13.6954 20.5488 13.8437C20.0703 14.1357 19.5516 14.3536 19.0217 14.475L19.0052 14.4733L18.9588 14.4686C18.9411 14.4668 18.9199 14.4647 18.8971 14.4627C18.7544 14.4504 18.6085 14.4475 18.5032 14.4454L18.4503 14.4443C18.3275 14.4414 18.2539 14.4371 18.1936 14.4281C18.0675 14.4091 17.9504 14.4028 17.8623 14.3995C17.8223 14.398 17.7824 14.397 17.7492 14.3962L17.7386 14.3959C17.701 14.395 17.671 14.3941 17.6428 14.393C17.5854 14.3906 17.5554 14.3869 17.5437 14.3852C17.3657 14.3099 17.1851 14.2443 16.9672 14.1915C16.905 14.1765 16.8694 14.1561 16.764 14.096C16.7016 14.0605 16.6149 14.0111 16.4839 13.9406C16.4254 13.8228 16.3427 13.7147 16.2365 13.6238C16.1716 13.5683 16.1128 13.5189 16.0578 13.4729C15.9362 13.371 15.8339 13.2853 15.7279 13.184C15.5832 13.0457 15.5089 12.9475 15.4738 12.8795C15.3785 12.6952 15.2578 12.5609 15.2073 12.5048L15.2034 12.5004L15.1842 12.479C15.1774 12.4633 15.1692 12.4448 15.1604 12.4258C15.1407 12.3834 15.1113 12.3247 15.0702 12.2599C14.9686 12.0999 14.8457 11.9792 14.7958 11.9302L14.7894 11.9238L14.7734 11.9081C14.7566 11.8915 14.7481 11.8832 14.7411 11.876C14.736 11.8687 14.7309 11.8611 14.7237 11.8503C14.715 11.8374 14.7033 11.8199 14.6847 11.7927C14.6504 11.7425 14.5946 11.6624 14.5219 11.5787C14.4917 11.544 14.4483 11.4951 14.4108 11.4527L14.3514 11.3857C14.3002 11.3273 14.2595 11.2791 14.2253 11.235C14.1914 11.1912 14.1693 11.1583 14.155 11.1338C14.1413 11.1103 14.1376 11.0993 14.1376 11.0993C14.1093 11.0133 14.0645 10.8919 14.0325 10.8052C14.0188 10.768 14.0074 10.7372 14.0007 10.7183C13.9654 10.6186 13.9507 10.5635 13.9447 10.5293C13.9452 10.5255 13.9462 10.5185 13.9485 10.5067C13.9528 10.4854 13.96 10.4558 13.9741 10.4064C13.9811 10.3817 13.9888 10.3559 13.9982 10.324C14.0071 10.2938 14.0177 10.2581 14.0283 10.2209L14.0533 10.1325C14.0927 9.9928 14.1258 9.87517 14.1687 9.7595C14.1927 9.6946 14.2137 9.64774 14.2307 9.6159C14.2376 9.60297 14.2425 9.59507 14.2449 9.59122C14.466 9.34641 14.5964 9.07915 14.6752 8.91152C14.7012 8.85613 14.7222 8.81074 14.7398 8.77261C14.7878 8.66872 14.811 8.61864 14.8436 8.56687C14.8467 8.56332 14.8603 8.54785 14.8937 8.51916C14.9181 8.4982 14.9482 8.47427 14.9882 8.44382C15.0153 8.42325 15.0364 8.40754 15.0608 8.38941L15.1267 8.34021C15.135 8.33399 15.1493 8.32366 15.2075 8.30016C15.2364 8.28847 15.2644 8.27803 15.3076 8.26195L15.3414 8.24934C15.3988 8.22794 15.4735 8.19968 15.5549 8.16463C15.6153 8.13865 15.681 8.10898 15.737 8.08371L15.791 8.05941C15.8628 8.02722 15.9214 8.00181 15.9752 7.98089C16.0835 7.9388 16.1268 7.93365 16.1301 7.93326C16.2115 7.92954 16.3171 7.93883 16.4975 7.96548C16.5234 7.9693 16.5523 7.97375 16.5836 7.97858C16.735 8.0019 16.9433 8.03396 17.1432 8.04649C17.1432 8.04649 17.1528 8.04728 17.1728 8.05074C17.1941 8.05444 17.2215 8.06008 17.2588 8.06873C17.2883 8.07557 17.3161 8.08241 17.3503 8.09078L17.3879 8.10001C17.4358 8.11169 17.4954 8.12602 17.5573 8.13893C17.6696 8.1623 17.7993 8.18147 17.8868 8.19438L17.9464 8.20332C18.0513 8.21965 18.0959 8.2305 18.1173 8.23762C18.4263 8.34012 18.7757 8.4159 19.0497 8.47532C19.139 8.49469 19.2203 8.51233 19.2896 8.52858C19.2896 8.52858 19.3021 8.53176 19.3288 8.54224C19.3567 8.5532 19.3918 8.56873 19.4401 8.59175C19.4731 8.60745 19.5002 8.62076 19.532 8.63642L19.6071 8.67321C19.6694 8.70355 19.7465 8.7403 19.829 8.77488Z" fill="white"/>
    <path fill-rule="evenodd" clip-rule="evenodd" d="M30.1032 20.251C29.91 20.1513 29.6456 19.9858 29.4503 19.7432C29.3443 19.6116 29.2742 19.4797 29.2367 19.4073C29.2101 19.356 29.1972 19.33 29.1891 19.3136C29.1807 19.2967 29.1773 19.2899 29.1692 19.276C29.1488 19.2408 29.1309 19.21 29.115 19.1826C29.0299 19.0356 29.0035 18.99 28.9557 18.9347C28.7692 18.7187 28.6341 18.4186 28.6545 18.0681C28.6733 17.7442 28.8178 17.5035 28.9348 17.3586C29.1528 17.0887 29.4426 16.9377 29.6348 16.8659C29.6675 16.8537 29.7139 16.8347 29.7703 16.8116C29.9667 16.7312 30.2849 16.601 30.5714 16.5333C31.1078 16.4065 31.598 16.4533 32.0885 16.6399C32.1382 16.6588 32.1694 16.6671 32.2231 16.6815C32.2728 16.6948 32.3417 16.7133 32.4623 16.75C32.6342 16.8023 32.9349 16.9016 33.204 17.114C33.3547 17.2328 33.4506 17.3667 33.5101 17.4681C33.5685 17.5676 33.6056 17.6597 33.6264 17.7145C33.6373 17.7434 33.6467 17.77 33.653 17.7879L33.6645 17.8205C33.8913 18.2754 33.7729 18.7175 33.7495 18.8049C33.748 18.8104 33.7469 18.8146 33.7463 18.8172C33.7297 18.8886 33.7175 18.9708 33.6992 19.1049C33.6983 19.1111 33.6974 19.1175 33.6965 19.124C33.6805 19.2415 33.6583 19.4041 33.6215 19.5686C33.5821 19.745 33.5026 20.0143 33.3741 20.2727C33.3096 20.4024 33.2161 20.5631 33.0843 20.7129C32.957 20.8574 32.7378 21.0553 32.4124 21.1444C31.6466 21.354 31.0185 21.0003 30.7559 20.8524C30.7306 20.8382 30.7086 20.8258 30.6903 20.8161C30.3902 20.6565 30.211 20.4287 30.1032 20.251ZM33.6699 17.8352C33.6699 17.8353 33.6695 17.8344 33.6688 17.8324C33.6695 17.8342 33.6699 17.8352 33.6699 17.8352Z" fill="black"/>
    <path fill-rule="evenodd" clip-rule="evenodd" d="M17.337 12.8172C17.1683 12.8048 17.0004 12.7496 16.85 12.6485C16.8288 12.6343 16.7887 12.6097 16.735 12.5768C16.5104 12.4392 16.0477 12.1557 15.7288 11.8685C15.5113 11.6726 15.248 11.3864 15.096 11.0044C14.927 10.5796 14.9197 10.0919 15.1508 9.61768C15.3638 9.18063 15.6977 8.84067 16.1191 8.61603C16.1376 8.60614 16.1492 8.59948 16.1685 8.58831C16.1849 8.57885 16.2068 8.56616 16.2434 8.54555C16.303 8.51196 16.3937 8.46216 16.4992 8.41739C16.7023 8.33119 17.0837 8.21006 17.5263 8.3528C18.1361 8.54947 18.7491 8.87279 19.243 9.19378C19.2942 9.22711 19.362 9.264 19.4695 9.31839C19.487 9.32727 19.5064 9.337 19.5272 9.34745C19.6167 9.3923 19.7325 9.4504 19.8404 9.51077C20.1103 9.66187 20.5055 9.91809 20.7651 10.3808C20.9397 10.692 21.0297 11.0853 20.9664 11.4837C20.9524 11.5719 20.9325 11.6455 20.9181 11.6945C20.9126 11.7134 20.9072 11.7308 20.9029 11.7445C20.8736 12.2285 20.5526 12.5251 20.337 12.6554C20.1259 12.783 19.9094 12.8299 19.7864 12.8508C19.5276 12.8947 19.2567 12.8893 19.0956 12.8686C18.9656 12.8519 18.8004 12.8242 18.6463 12.7975C18.5762 12.839 18.5104 12.8698 18.4553 12.8924C18.3185 12.9485 18.1602 12.9899 17.9936 13.0018C17.7503 13.0192 17.5211 12.9486 17.337 12.8172ZM20.8878 11.7934C20.8877 11.7935 20.8882 11.7916 20.8894 11.7875C20.8885 11.7913 20.8879 11.7934 20.8878 11.7934Z" fill="black"/>
    <path fill-rule="evenodd" clip-rule="evenodd" d="M22.8914 23.0093C22.9124 22.4574 23.3768 22.0271 23.9287 22.0481C25.3179 22.101 26.7958 22.2396 28.2293 22.7608C29.3787 23.1788 30.3809 23.8508 31.2567 24.5012C31.3775 24.5908 31.5076 24.6838 31.644 24.7812C32.2899 25.2426 33.0754 25.8038 33.6604 26.5837C33.9918 27.0255 33.9022 27.6523 33.4604 27.9837C33.0186 28.3151 32.3918 28.2255 32.0604 27.7837C31.6777 27.2735 31.1997 26.929 30.575 26.4788C30.4147 26.3633 30.2448 26.2409 30.0644 26.1069C29.2294 25.4868 28.4154 24.9566 27.5458 24.6404C26.4092 24.2271 25.1811 24.0973 23.8526 24.0467C23.3007 24.0256 22.8703 23.5612 22.8914 23.0093Z" fill="#B7FF01"/>
    <path fill-rule="evenodd" clip-rule="evenodd" d="M22.4238 23.5497C22.812 23.1568 23.4451 23.1529 23.838 23.5411C24.0497 23.7503 24.2848 23.9712 24.5313 24.2029C25.2435 24.8725 26.0513 25.6319 26.6682 26.4565C26.7754 26.5997 26.8726 26.7167 26.984 26.8509C27.0508 26.9313 27.1227 27.0178 27.2049 27.1199C27.4039 27.3669 27.6231 27.6589 27.8122 28.0157C27.8382 28.0646 27.8644 28.1139 27.8907 28.1635C28.248 28.8357 28.6363 29.5663 28.9094 30.398C28.9243 30.4435 28.9425 30.4936 28.9674 30.5608C28.9698 30.5671 28.9722 30.5737 28.9747 30.5804C28.9965 30.6393 29.0234 30.7117 29.0486 30.7852C29.1041 30.947 29.1731 31.1728 29.1967 31.429L29.2061 31.534C29.2085 31.5594 29.2101 31.5731 29.2113 31.5814C29.4013 32.0937 29.1444 32.665 28.633 32.862C28.1176 33.0604 27.5389 32.8035 27.3404 32.2881C27.2373 32.0204 27.2175 31.7679 27.2082 31.6494C27.2071 31.6352 27.2061 31.623 27.2052 31.6128C27.2034 31.5929 27.1944 31.5437 27.1568 31.4342C27.14 31.3851 27.1217 31.3358 27.0985 31.2732L27.0918 31.255C27.0673 31.1889 27.0371 31.1069 27.0092 31.022C26.7915 30.3591 26.4792 29.7705 26.1053 29.0658C26.0854 29.0283 26.0654 28.9905 26.0451 28.9523C25.9432 28.76 25.8148 28.5823 25.6475 28.3747C25.6023 28.3186 25.5485 28.2536 25.4899 28.1829C25.3578 28.0234 25.2016 27.8348 25.0668 27.6546C24.5623 26.9803 23.9508 26.4053 23.2821 25.7766C23.0074 25.5183 22.723 25.2509 22.4324 24.9638C22.0395 24.5757 22.0357 23.9425 22.4238 23.5497Z" fill="#B7FF01"/>
    <path fill-rule="evenodd" clip-rule="evenodd" d="M5.99704 10.3971C6.2575 9.91004 6.86345 9.7264 7.35046 9.98686C7.59932 10.12 7.87332 10.258 8.16109 10.4029C8.99546 10.8232 9.94562 11.3018 10.7345 11.8879C10.8702 11.9887 10.9892 12.0681 11.1266 12.1598C11.2094 12.2151 11.2989 12.2748 11.4027 12.3463C11.6519 12.518 11.9339 12.7266 12.2053 13.0027C12.2423 13.0402 12.2796 13.0781 12.3171 13.1161C12.8221 13.6285 13.3754 14.1899 13.848 14.8729C13.8729 14.9087 13.9021 14.9482 13.9426 15.0023C13.9464 15.0074 13.9504 15.0126 13.9544 15.018C13.9899 15.0653 14.0341 15.1243 14.0771 15.1847C14.1715 15.3173 14.2985 15.5087 14.3907 15.7422L14.4266 15.8341C14.4324 15.8487 14.4363 15.8582 14.439 15.8645C14.761 16.3011 14.676 16.9172 14.2441 17.2498C13.8065 17.5868 13.1786 17.5053 12.8416 17.0677C12.6693 16.844 12.5812 16.6109 12.5421 16.5074C12.5376 16.4952 12.5337 16.4849 12.5304 16.4765C12.5271 16.4683 12.5103 16.4323 12.4479 16.3448C12.4201 16.3056 12.3908 16.2666 12.3529 16.216L12.3421 16.2016C12.3023 16.1484 12.2523 16.0815 12.2035 16.0111C11.8328 15.4754 11.3941 15.0296 10.863 14.49C10.8354 14.4619 10.8075 14.4336 10.7793 14.405C10.6384 14.2617 10.4763 14.1368 10.268 13.9933C10.2126 13.9551 10.1463 13.9107 10.074 13.8623C9.90988 13.7524 9.71431 13.6215 9.54178 13.4933C8.90214 13.0182 8.19051 12.6596 7.40919 12.266C7.087 12.1037 6.75296 11.9354 6.40723 11.7505C5.92022 11.49 5.73657 10.8841 5.99704 10.3971Z" fill="#B7FF01"/>
    <path fill-rule="evenodd" clip-rule="evenodd" d="M10.4747 9.53092C10.8818 9.15773 11.5144 9.18523 11.8876 9.59235C11.9964 9.71112 12.123 9.82461 12.29 9.96953C12.3057 9.9832 12.322 9.99727 12.3387 10.0117C12.4861 10.1393 12.6674 10.2963 12.8383 10.4695C13.4212 11.0605 13.8283 11.789 14.1411 12.3722C14.4789 13.002 14.8205 13.6195 15.1761 14.2338C15.6064 14.977 15.9096 15.821 16.1705 16.5473C16.2367 16.7316 16.3002 16.9083 16.3623 17.0739C16.5564 17.5909 16.2946 18.1674 15.7775 18.3615C15.2605 18.5556 14.684 18.2938 14.4899 17.7767C14.4058 17.5527 14.328 17.337 14.2528 17.1285C13.9996 16.4267 13.7762 15.8075 13.4453 15.2359C13.0766 14.5991 12.7245 13.9622 12.3786 13.3176C12.0643 12.7316 11.7736 12.2381 11.4144 11.874C11.3019 11.7599 11.1807 11.6548 11.0238 11.5187C11.0092 11.5061 10.9943 11.4932 10.9791 11.48C10.8121 11.3351 10.6073 11.1555 10.4132 10.9438C10.04 10.5367 10.0676 9.90411 10.4747 9.53092Z" fill="#B7FF01"/>
    <path fill-rule="evenodd" clip-rule="evenodd" d="M6.591 14.6363C6.59308 14.084 7.04247 13.638 7.59475 13.6401C8.47067 13.6434 9.39882 13.7454 10.309 14.0755C11.3664 14.4591 12.3681 15.1667 13.1352 15.7572C14.1676 16.5519 14.9067 17.4466 15.6392 18.3893C15.9781 18.8254 15.8993 19.4536 15.4632 19.7925C15.0271 20.1314 14.3988 20.0526 14.06 19.6165C13.3457 18.6973 12.7351 17.9731 11.9153 17.342C11.1691 16.7676 10.3741 16.2266 9.62704 15.9557C9.00152 15.7288 8.31934 15.6428 7.58724 15.6401C7.03496 15.638 6.58893 15.1886 6.591 14.6363Z" fill="#B7FF01"/>
    <path fill-rule="evenodd" clip-rule="evenodd" d="M22.7912 23.3653C22.8982 22.8234 23.4241 22.4709 23.966 22.5779C24.9974 22.7816 26.0608 23.1246 27.0595 23.7517C28.2156 24.4777 29.2651 25.6112 30.0751 26.56C31.141 27.8086 31.8568 29.1216 32.5725 30.527C32.8232 31.0192 32.6274 31.6213 32.1352 31.8719C31.6431 32.1226 31.0409 31.9268 30.7903 31.4346C30.0853 30.0502 29.4573 28.9166 28.554 27.8586C27.7552 26.9229 26.8733 25.9964 25.9959 25.4454C25.2637 24.9856 24.4501 24.7121 23.5785 24.54C23.0367 24.433 22.6842 23.9071 22.7912 23.3653Z" fill="#B7FF01"/>
</svg>