<?xml version="1.0" encoding="UTF-8" standalone="no"?>
<!DOCTYPE svg PUBLIC "-//W3C//DTD SVG 1.1//EN" "http://www.w3.org/Graphics/SVG/1.1/DTD/svg11.dtd">
<svg width="100%" height="100%" viewBox="0 0 1653 1108" version="1.1" xmlns="http://www.w3.org/2000/svg" xmlns:xlink="http://www.w3.org/1999/xlink" xml:space="preserve" xmlns:serif="http://www.serif.com/" style="fill-rule:evenodd;clip-rule:evenodd;stroke-linecap:round;stroke-linejoin:round;stroke-miterlimit:1.5;">
    <g transform="matrix(1,0,0,1,-2445.42,-5065.44)">
        <g transform="matrix(1,0,0,1,2271.8,4619.27)">
            <g transform="matrix(1,0,0,1,-2271.8,-4546.76)">
                <path d="M3088.41,5365.53L2823.6,5365.53L2663.7,5208.03L3245.91,5208.03L3245.91,6094.77L3088.41,5937.27L3088.41,5365.53ZM3297.69,6094.77L3297.69,5208.03L3879.91,5208.03L3720.01,5365.53L3455.19,5365.53L3455.19,5937.27L3297.69,6094.77ZM3932.47,5156.26L2611.14,5156.26L2451.24,4998.76L4092.36,4998.76L3932.47,5156.26ZM3036.64,5575.38L2876.16,5417.3L3036.64,5417.3L3036.64,5575.38ZM3667.45,5417.3L3506.96,5575.38L3506.96,5417.3L3667.45,5417.3Z" style="fill:url(#_Radial1);stroke:black;stroke-width:11.63px;"/>
            </g>
        </g>
    </g>
    <defs>
        <radialGradient id="_Radial1" cx="0" cy="0" r="1" gradientUnits="userSpaceOnUse" gradientTransform="matrix(-1000,-666.898,447.528,-667.844,3271.8,5073.57)"><stop offset="0" style="stop-color:rgb(255,81,81);stop-opacity:1"/><stop offset="1" style="stop-color:rgb(138,30,30);stop-opacity:1"/></radialGradient>
    </defs>
</svg>