<svg xmlns="http://www.w3.org/2000/svg" width="16" height="16" viewBox="0 0 16 16" fill="none">
<path d="M7.99967 7.59207C7.39567 6.41807 5.75167 4.2294 4.22301 3.15073C2.75834 2.1174 2.20034 2.2954 1.83434 2.46207C1.41034 2.65207 1.33301 3.3034 1.33301 3.6854C1.33301 4.06873 1.54301 6.82473 1.67967 7.2854C2.13301 8.8054 3.74234 9.31873 5.22634 9.15407C3.05301 9.47607 1.12167 10.2674 3.65301 13.0861C6.43834 15.9694 7.47034 12.4681 7.99967 10.6927C8.52901 12.4681 9.13834 15.8434 12.2957 13.0861C14.6663 10.6927 12.947 9.47607 10.7737 9.15407C12.257 9.31873 13.867 8.8054 14.3197 7.2854C14.4563 6.8254 14.6663 4.06873 14.6663 3.68607C14.6663 3.30273 14.589 2.65273 14.165 2.46073C13.799 2.2954 13.241 2.11607 11.7763 3.1494C10.2477 4.23007 8.60301 6.41873 7.99967 7.59207Z" fill="#EAF7CC" fill-opacity="0.5"/>
</svg>