<svg xmlns="http://www.w3.org/2000/svg" width="16" height="16" viewBox="0 0 16 16" fill="none">
    <path d="M12.8464 3.5532C11.9598 3.13987 10.9998 2.83987 9.99975 2.66653C9.99098 2.66625 9.98226 2.6679 9.9742 2.67136C9.96614 2.67481 9.95893 2.67999 9.95309 2.68653C9.83309 2.90653 9.69309 3.1932 9.59975 3.4132C8.53909 3.2532 7.46042 3.2532 6.39975 3.4132C6.30642 3.18653 6.16642 2.90653 6.03975 2.68653C6.03309 2.6732 6.01309 2.66653 5.99309 2.66653C4.99309 2.83987 4.03975 3.13987 3.14642 3.5532C3.13975 3.5532 3.13309 3.55987 3.12642 3.56653C1.31309 6.27987 0.813086 8.91987 1.05975 11.5332C1.05975 11.5465 1.06642 11.5599 1.07975 11.5665C2.27975 12.4465 3.43309 12.9799 4.57309 13.3332C4.59309 13.3399 4.61309 13.3332 4.61975 13.3199C4.88642 12.9532 5.12642 12.5665 5.33309 12.1599C5.34642 12.1332 5.33309 12.1065 5.30642 12.0999C4.92642 11.9532 4.56642 11.7799 4.21309 11.5799C4.18642 11.5665 4.18642 11.5265 4.20642 11.5065C4.27975 11.4532 4.35309 11.3932 4.42642 11.3399C4.43975 11.3265 4.45975 11.3265 4.47309 11.3332C6.76642 12.3799 9.23975 12.3799 11.5064 11.3332C11.5198 11.3265 11.5398 11.3265 11.5531 11.3399C11.6264 11.3999 11.6998 11.4532 11.7731 11.5132C11.7998 11.5332 11.7998 11.5732 11.7664 11.5865C11.4198 11.7932 11.0531 11.9599 10.6731 12.1065C10.6464 12.1132 10.6398 12.1465 10.6464 12.1665C10.8598 12.5732 11.0998 12.9599 11.3598 13.3265C11.3798 13.3332 11.3998 13.3399 11.4198 13.3332C12.5664 12.9799 13.7198 12.4465 14.9198 11.5665C14.9331 11.5599 14.9398 11.5465 14.9398 11.5332C15.2331 8.5132 14.4531 5.8932 12.8731 3.56653C12.8664 3.55987 12.8598 3.5532 12.8464 3.5532ZM5.67975 9.93987C4.99309 9.93987 4.41975 9.30653 4.41975 8.52653C4.41975 7.74653 4.97975 7.1132 5.67975 7.1132C6.38642 7.1132 6.94642 7.7532 6.93975 8.52653C6.93975 9.30653 6.37975 9.93987 5.67975 9.93987ZM10.3264 9.93987C9.63975 9.93987 9.06642 9.30653 9.06642 8.52653C9.06642 7.74653 9.62642 7.1132 10.3264 7.1132C11.0331 7.1132 11.5931 7.7532 11.5864 8.52653C11.5864 9.30653 11.0331 9.93987 10.3264 9.93987Z" fill="#EAF7CC" fill-opacity="0.7"/>
</svg>