<svg xmlns="http://www.w3.org/2000/svg" width="16" height="16" viewBox="0 0 16 16" fill="none">
    <path d="M7.99967 1.3335C7.1242 1.3335 6.25729 1.50593 5.44845 1.84097C4.63961 2.176 3.90469 2.66706 3.28563 3.28612C2.03539 4.53636 1.33301 6.23205 1.33301 8.00016C1.33301 10.9468 3.24634 13.4468 5.89301 14.3335C6.22634 14.3868 6.33301 14.1802 6.33301 14.0002V12.8735C4.48634 13.2735 4.09301 11.9802 4.09301 11.9802C3.78634 11.2068 3.35301 11.0002 3.35301 11.0002C2.74634 10.5868 3.39967 10.6002 3.39967 10.6002C4.06634 10.6468 4.41967 11.2868 4.41967 11.2868C4.99967 12.3002 5.97967 12.0002 6.35967 11.8402C6.41967 11.4068 6.59301 11.1135 6.77967 10.9468C5.29967 10.7802 3.74634 10.2068 3.74634 7.66683C3.74634 6.92683 3.99967 6.3335 4.43301 5.86016C4.36634 5.6935 4.13301 5.00016 4.49967 4.10016C4.49967 4.10016 5.05967 3.92016 6.33301 4.78016C6.85967 4.6335 7.43301 4.56016 7.99967 4.56016C8.56634 4.56016 9.13967 4.6335 9.66634 4.78016C10.9397 3.92016 11.4997 4.10016 11.4997 4.10016C11.8663 5.00016 11.633 5.6935 11.5663 5.86016C11.9997 6.3335 12.253 6.92683 12.253 7.66683C12.253 10.2135 10.693 10.7735 9.20634 10.9402C9.44634 11.1468 9.66634 11.5535 9.66634 12.1735V14.0002C9.66634 14.1802 9.77301 14.3935 10.113 14.3335C12.7597 13.4402 14.6663 10.9468 14.6663 8.00016C14.6663 7.12468 14.4939 6.25778 14.1589 5.44894C13.8238 4.6401 13.3328 3.90517 12.7137 3.28612C12.0947 2.66706 11.3597 2.176 10.5509 1.84097C9.74206 1.50593 8.87515 1.3335 7.99967 1.3335Z" fill="#EAF7CC" fill-opacity="0.7"/>
</svg>