<svg xmlns="http://www.w3.org/2000/svg" width="16" height="16" viewBox="0 0 16 16" fill="none">
    <path d="M5.19967 1.3335H10.7997C12.933 1.3335 14.6663 3.06683 14.6663 5.20016V10.8002C14.6663 11.8257 14.259 12.8092 13.5338 13.5343C12.8087 14.2594 11.8252 14.6668 10.7997 14.6668H5.19967C3.06634 14.6668 1.33301 12.9335 1.33301 10.8002V5.20016C1.33301 4.17466 1.74039 3.19116 2.46553 2.46602C3.19067 1.74088 4.17417 1.3335 5.19967 1.3335ZM5.06634 2.66683C4.42982 2.66683 3.81937 2.91969 3.36929 3.36977C2.9192 3.81986 2.66634 4.43031 2.66634 5.06683V10.9335C2.66634 12.2602 3.73967 13.3335 5.06634 13.3335H10.933C11.5695 13.3335 12.18 13.0806 12.6301 12.6306C13.0802 12.1805 13.333 11.57 13.333 10.9335V5.06683C13.333 3.74016 12.2597 2.66683 10.933 2.66683H5.06634ZM11.4997 3.66683C11.7207 3.66683 11.9327 3.75463 12.0889 3.91091C12.2452 4.06719 12.333 4.27915 12.333 4.50016C12.333 4.72118 12.2452 4.93314 12.0889 5.08942C11.9327 5.2457 11.7207 5.3335 11.4997 5.3335C11.2787 5.3335 11.0667 5.2457 10.9104 5.08942C10.7541 4.93314 10.6663 4.72118 10.6663 4.50016C10.6663 4.27915 10.7541 4.06719 10.9104 3.91091C11.0667 3.75463 11.2787 3.66683 11.4997 3.66683ZM7.99967 4.66683C8.88373 4.66683 9.73158 5.01802 10.3567 5.64314C10.9818 6.26826 11.333 7.11611 11.333 8.00016C11.333 8.88422 10.9818 9.73206 10.3567 10.3572C9.73158 10.9823 8.88373 11.3335 7.99967 11.3335C7.11562 11.3335 6.26777 10.9823 5.64265 10.3572C5.01753 9.73206 4.66634 8.88422 4.66634 8.00016C4.66634 7.11611 5.01753 6.26826 5.64265 5.64314C6.26777 5.01802 7.11562 4.66683 7.99967 4.66683ZM7.99967 6.00016C7.46924 6.00016 6.96053 6.21088 6.58546 6.58595C6.21039 6.96102 5.99967 7.46973 5.99967 8.00016C5.99967 8.5306 6.21039 9.0393 6.58546 9.41438C6.96053 9.78945 7.46924 10.0002 7.99967 10.0002C8.53011 10.0002 9.03882 9.78945 9.41389 9.41438C9.78896 9.0393 9.99967 8.5306 9.99967 8.00016C9.99967 7.46973 9.78896 6.96102 9.41389 6.58595C9.03882 6.21088 8.53011 6.00016 7.99967 6.00016Z" fill="#EAF7CC" fill-opacity="0.7"/>
</svg>