<svg xmlns="http://www.w3.org/2000/svg" width="16" height="16" viewBox="0 0 16 16" fill="none">
    <path fill-rule="evenodd" clip-rule="evenodd" d="M8.51912 3.3501L9.55346 4.39663L10.3284 3.61196C10.9035 3.09613 11.7912 3.12192 12.3334 3.66679C12.8796 4.2157 12.8979 5.11318 12.3713 5.68621L8.52148 9.53949L9.54913 10.5774L13.444 6.69877C14.4507 5.58718 14.4765 3.90137 13.5423 2.79765C12.5518 1.62748 10.7499 1.42775 9.48603 2.3969L8.51912 3.3501ZM7.48093 12.6499L6.4466 11.6034L5.67153 12.3881C5.09648 12.9039 4.20878 12.8781 3.66655 12.3332C3.12039 11.7843 3.10201 10.8868 3.62861 10.3138L7.47867 6.46052L6.45092 5.42266L2.55604 9.30123C1.54933 10.4128 1.52358 12.0986 2.45776 13.2024C3.44816 14.3725 5.25019 14.5723 6.51402 13.6031L7.48093 12.6499ZM11.5893 9.54495L12.6308 8.50561L13.5856 9.47102C14.5572 10.7338 14.3636 12.5392 13.1984 13.5351C12.0995 14.4743 10.4163 14.4539 9.30326 13.4491L5.41841 9.5605L6.45127 8.52776L10.3107 12.3715C10.8845 12.8971 11.7805 12.8758 12.3268 12.3271C12.8691 11.7822 12.8919 10.8931 12.3751 10.3187L11.5893 9.54495ZM3.35551 7.49533L4.39712 6.45599L3.61114 5.68214C3.09437 5.10774 3.11717 4.21862 3.6595 3.67375C4.20576 3.12504 5.10171 3.10378 5.67559 3.62935L9.53499 7.47308L10.5679 6.44034L6.68309 2.55182C5.57003 1.54703 3.88683 1.52665 2.78792 2.46588C1.62277 3.46171 1.42915 5.26712 2.40078 6.52992L3.35551 7.49533Z" fill="#EAF7CC" fill-opacity="0.5"/>
</svg>